PathFileType	4	(X/Y/Z)	SUBJ24_1_walk_RCNL2025.trc
DataRate	CameraRate	NumFrames	NumMarkers	Units	OrigDataRate	OrigDataStartFrame	OrigNumFrames
100	100	9	25	mm	100	168	335
Frame#	Time	R_Shoulder			L_Shoulder			C7			J_Notch			R_Elbow			L_Elbow			R_Wrist			L_Wrist			R_Asis			L_Asis			Sacral			Thoracic			Sternum			R_Thigh_Lateral			R_Knee_Lateral			R_Shank_Lateral			R_Ankle_Lateral			R_Heel			R_Toe			L_Thigh_Lateral			L_Knee_Lateral			L_Shank_Lateral			L_Ankle_Lateral			L_Heel			L_Toe		
		X1	Y1	Z1	X2	Y2	Z2	X3	Y3	Z3	X4	Y4	Z4	X5	Y5	Z5	X6	Y6	Z6	X7	Y7	Z7	X8	Y8	Z8	X9	Y9	Z9	X10	Y10	Z10	X11	Y11	Z11	X12	Y12	Z12	X13	Y13	Z13	X14	Y14	Z14	X15	Y15	Z15	X16	Y16	Z16	X17	Y17	Z17	X18	Y18	Z18	X19	Y19	Z19	X20	Y20	Z20	X21	Y21	Z21	X22	Y22	Z22	X23	Y23	Z23	X24	Y24	Z24	X25	Y25	Z25
168	1.67000000	-729.578064	1317.636719	420.254578	-772.409729	1327.914551	78.342972	-830.830994	1387.009521	258.247559	-701.191833	1292.085571	243.985229	-728.798157	1035.989380	520.440857	-826.704773	1040.946411	-9.995823	-617.639221	827.716766	493.964981	-773.983521	810.494354	-5.010961	-725.739319	883.944092	412.523590	-739.850342	878.101440	86.922958	-905.698303	927.177856	263.869232	-902.172302	1119.976318	261.048889	-636.299561	1074.781860	232.108093	-815.989685	569.331177	438.950195	-778.426453	434.867737	351.760651	-804.981323	291.933044	398.389313	-849.293579	63.426727	320.919525	-898.372192	38.030987	264.521637	-723.966797	37.284317	311.384003	-681.706177	584.012939	54.130978	-623.543152	466.378174	100.078636	-703.845398	335.688416	60.760113	-804.656250	136.835342	138.872620	-847.177246	130.015015	204.128922	-704.206482	64.566376	149.988449
169	1.68000000	-717.115356	1317.304688	420.566620	-761.308533	1326.847778	78.647781	-818.786316	1386.307739	258.851532	-689.243530	1291.377930	244.260727	-712.672668	1036.132446	521.572327	-819.816589	1040.179443	-8.260431	-596.620575	830.679413	493.325607	-773.214386	808.515900	-3.194450	-714.732239	883.109253	413.001495	-726.486572	878.109070	87.487312	-893.844543	926.464050	263.288635	-890.380371	1119.406860	262.016296	-624.090454	1074.385864	232.485748	-809.524597	569.884583	438.853729	-774.470947	434.730713	351.533630	-802.455383	292.014893	398.166779	-848.998962	63.891373	320.505981	-898.068604	38.720501	264.058014	-723.697937	37.187164	311.296997	-664.505493	585.327087	54.908951	-605.644165	467.771667	101.635033	-678.252563	331.443726	61.363174	-765.958130	126.673119	138.643280	-808.036133	116.862045	203.783920	-661.117188	61.258633	149.959091
170	1.69000000	-704.631958	1316.632935	420.815552	-750.181580	1325.586182	78.871338	-806.727112	1385.370728	259.388855	-677.277954	1290.428223	244.489548	-696.594360	1036.010010	522.565308	-812.930115	1039.254150	-6.525126	-575.819885	833.444489	492.602280	-772.201172	806.588104	-1.397060	-703.642456	882.131897	413.429077	-713.058960	877.765625	88.015343	-881.950500	925.491211	262.678253	-878.623413	1118.616333	262.813568	-611.834045	1073.728638	232.780579	-802.696594	570.405945	438.835205	-770.152222	434.575226	351.336456	-799.709595	292.087189	397.957733	-848.682068	64.404388	320.084076	-897.758606	39.504875	263.549774	-723.456604	37.099503	311.243683	-648.104858	586.009521	55.866802	-588.899658	468.509857	103.383926	-653.303406	327.177704	62.036209	-726.519592	116.864899	138.179977	-767.898315	104.025871	203.234634	-617.601440	58.716747	149.631470
171	1.70000000	-692.128845	1315.655151	420.996765	-739.003479	1324.158081	79.014236	-794.647095	1384.217773	259.852051	-665.288757	1289.251221	244.665024	-680.548523	1035.652954	523.398987	-806.020386	1038.202881	-4.794682	-555.264282	836.008484	491.793060	-770.905243	804.714142	0.375214	-692.437500	881.040283	413.791046	-699.657166	877.049927	88.492554	-870.001099	924.264954	262.055695	-866.877625	1117.616333	263.419373	-599.540955	1072.823730	232.992767	-795.588501	570.814819	438.845032	-765.437012	434.397491	351.168732	-796.727661	292.152100	397.759552	-848.331970	64.975189	319.660370	-897.436340	40.404324	263.002716	-723.253784	37.022724	311.232117	-632.618347	585.971191	56.991459	-573.305603	468.545898	105.259773	-629.029297	322.927734	62.761185	-686.491577	107.700066	137.531937	-726.922668	91.845482	202.536224	-573.881165	57.171566	149.051926
172	1.71000000	-679.610291	1314.410278	421.102051	-727.750366	1322.589966	79.078011	-782.543274	1382.869629	260.232147	-653.270813	1287.867188	244.778275	-664.529968	1035.094482	524.055725	-799.065430	1037.056641	-3.079559	-534.981201	838.368530	490.897263	-769.286072	802.897400	2.117873	-681.095093	879.864014	414.080994	-686.352173	875.959229	88.902924	-857.980896	922.789185	261.431732	-855.119507	1116.422607	263.822083	-587.221680	1071.689575	233.129272	-788.259583	571.068298	438.845001	-760.301819	434.193726	351.025360	-793.492920	292.217743	397.568359	-847.938660	65.618652	319.238586	-897.091492	41.439552	262.428436	-723.093872	36.958103	311.263702	-618.140625	585.140503	58.248390	-558.818542	467.857971	107.191391	-605.441528	318.731110	63.523182	-646.104065	99.458519	136.775192	-685.344360	80.642532	201.761658	-530.235657	56.833809	148.291489
173	1.72000000	-667.084229	1312.940674	421.122253	-716.401306	1320.908325	79.062325	-770.414734	1381.349731	260.520325	-641.219116	1286.302856	244.819946	-648.544556	1034.367065	524.522400	-792.041870	1035.842773	-1.395978	-514.998428	840.522156	489.914810	-767.300629	801.143005	3.826922	-669.601379	878.626099	414.297699	-673.181763	874.515503	89.226883	-845.874146	921.071045	260.809113	-843.332092	1115.056152	264.024292	-574.884644	1070.349243	233.201767	-780.726013	571.172119	438.813812	-754.735107	433.959595	350.897583	-789.992371	292.296326	397.384552	-847.493958	66.355347	318.824646	-896.714966	42.630791	261.844604	-722.973145	36.906670	311.333252	-604.739868	583.485291	59.581985	-545.355774	466.458160	109.116333	-582.541382	314.640503	64.311058	-605.675232	92.386322	136.001572	-643.495483	70.700150	200.986740	-487.011414	57.864510	147.452667
174	1.73000000	-654.559509	1311.289307	421.047943	-704.937683	1319.139648	78.964897	-758.261780	1379.683716	260.708679	-629.129333	1284.588989	244.780853	-632.609192	1033.499268	524.790039	-784.917480	1034.584961	0.236464	-495.342316	842.467987	488.847046	-764.903687	799.458527	5.498288	-657.950867	877.341309	414.443817	-660.152161	872.762329	89.445023	-833.666931	919.126221	260.181885	-831.504089	1113.538330	264.036041	-562.536072	1068.829712	233.222137	-772.967773	571.171936	438.745544	-748.734680	433.691162	350.778534	-786.214111	292.398193	397.212585	-846.992615	67.209282	318.432587	-896.304565	43.996990	261.279877	-722.879578	36.867905	311.428986	-592.436279	581.031677	60.918594	-532.787476	464.400818	110.992867	-560.318665	310.728638	65.120308	-565.606934	86.672188	135.301712	-601.814636	62.239712	200.276108	-444.624786	60.332508	146.671692
175	1.74000000	-642.044250	1309.498535	420.869934	-693.344177	1317.309937	78.782829	-746.085571	1377.898315	260.789795	-616.999939	1282.759033	244.652374	-616.749695	1032.513550	524.853577	-777.648315	1033.304565	1.795778	-476.035889	844.206757	487.698471	-762.049164	797.852814	7.126778	-646.148376	876.018555	414.528381	-647.240173	870.761047	89.540985	-821.348267	916.982361	259.538879	-819.624939	1111.888062	263.868164	-550.176941	1067.162354	233.198044	-764.953003	571.129761	438.643768	-742.301758	433.387177	350.670502	-782.145996	292.529968	397.059967	-846.431885	68.204369	318.088287	-895.866089	45.557144	260.779877	-722.794617	36.837891	311.534698	-581.172729	577.869568	62.175587	-520.931946	461.788300	112.805870	-538.742859	307.083405	65.956879	-526.369751	82.425140	134.749954	-560.840210	55.396626	199.675934	-403.551575	64.173347	146.105057
176	1.75000000	-629.546509	1307.607788	420.581848	-681.610291	1315.443359	78.512299	-733.887817	1376.020386	260.756378	-604.830017	1280.849365	244.426758	-600.998840	1031.427124	524.711975	-770.181335	1032.021729	3.255944	-457.098419	845.742523	486.478165	-758.690247	796.333984	8.704379	-634.206665	874.664551	414.566467	-634.397339	868.584961	89.501892	-808.910645	914.679688	258.867859	-807.678894	1110.125488	263.531311	-537.802368	1065.383789	233.130203	-756.658875	571.097412	438.515900	-735.435669	433.048004	350.585785	-777.775208	292.698914	396.940247	-845.809875	69.361732	317.830170	-895.410095	47.333130	260.406281	-722.698486	36.809692	311.636322	-570.803223	574.137024	63.278919	-509.562317	458.768250	114.564651	-517.769897	303.798279	66.836311	-488.484375	79.649841	134.398483	-521.188477	50.198040	199.215118	-364.302002	69.167763	145.899673
